<?xml version="1.0" encoding="utf-8"?>
<!-- Generator: Adobe Illustrator 23.0.3, SVG Export Plug-In . SVG Version: 6.00 Build 0)  -->
<svg version="1.1" xmlns="http://www.w3.org/2000/svg" xmlns:xlink="http://www.w3.org/1999/xlink" x="0px" y="0px"
	 viewBox="0 0 349.29 182.11" style="enable-background:new 0 0 349.29 182.11;" xml:space="preserve">
<style type="text/css">
	.st0{display:none;fill:#0F1530;}
	.st1{fill:#C09737;}
	.st2{display:none;}
</style>
<g id="Layer_1">
	<rect id="bg" x="-665.65" y="-328.71" class="st0" width="1643.73" height="940"/>
	<g>
		<g>
			<path class="st1" d="M128.17,85.08c1.58-0.62,3.39-1.12,5.42-1.5c2.03-0.38,4.76-0.57,8.21-0.57c3.44,0,7.02,0.93,10.74,2.79
				c15.62-7.64,26.29-18.75,32-33.34c2.06-5.16,3.1-10.39,3.1-15.69c0-5.3-1.45-9.81-4.33-13.52c-1.58,0.9-3.17,1.89-4.75,2.99
				l-4.96,3.51c-8.95,6.75-16.52,13.42-22.71,20.03c-10.46,11.08-21.56,24.52-33.29,40.31c-11.73,15.79-23.67,28.89-35.82,39.28
				c-12.15,10.39-23.73,17.86-34.74,22.4c-5.99,2.34-13.56,3.51-22.71,3.51c-5.99,0-11.15-1.45-15.48-4.34
				c-4.27-2.89-6.4-6.4-6.4-10.53c0-4.34,2.13-7.09,6.4-8.26c1.1-0.27,2.2-0.41,3.3-0.41c1.1,0,2.22,0.36,3.35,1.08
				c1.14,0.72,1.7,1.86,1.7,3.41c0,1.55-0.57,2.82-1.7,3.82c-1.14,1-2.68,1.5-4.65,1.5s-3.42-0.34-4.39-1.03v0.62
				c0,3.37,1.67,6.13,5.01,8.26c3.34,2.13,7.17,3.2,11.51,3.2s7.86-0.33,10.58-0.98c2.72-0.65,5.69-1.91,8.93-3.77
				c3.23-1.86,6.86-4.47,10.89-7.85c4.03-3.37,8.79-7.78,14.3-13.21l19.1-20.03l25.5-27.87c24.16-27.39,47.07-46.83,68.75-58.32
				c-7.92-7.91-20.99-11.87-39.23-11.87c-21.26,0-42.26,7.81-62.97,23.43c-9.98,7.57-18.24,15.59-24.77,24.05
				c-6.61,8.74-9.91,16.31-9.91,22.71c0,5.85,2.89,9.6,8.67,11.25c1.65,0.48,3.96,0.72,6.92,0.72c2.96,0,6.73-0.79,11.3-2.37
				c4.58-1.58,9.19-3.82,13.83-6.71c4.65-2.89,9.17-6.35,13.57-10.37c4.4-4.03,8.4-8.48,11.97-13.37
				c7.91-10.53,12.66-21.54,14.25-33.03c0.41-2.2,0.95-3.3,1.6-3.3c0.65,0,0.98,0.76,0.98,2.27c0,12.66-3.65,24.57-10.94,35.72
				c-6.61,10.05-15.45,18.17-26.53,24.36c-10.8,6.06-21.64,9.08-32.52,9.08c-7.16,0-12.08-2.68-14.76-8.05
				c-0.96-1.79-1.44-4.71-1.44-8.77c0-4.06,1.34-8.96,4.03-14.71c2.68-5.75,6.38-11.29,11.1-16.62
				c4.71-5.33,10.31-10.34,16.77-15.02c6.47-4.68,13.45-8.77,20.96-12.28c16.17-7.5,33.03-11.25,50.58-11.25s31.38,3.85,41.5,11.56
				c10.32-4.95,18.92-7.43,25.81-7.43c2.27,0,3.41,0.35,3.41,1.03c0,0.35-0.62,0.6-1.86,0.77c-1.24,0.17-3.03,0.53-5.37,1.08
				c-6.81,1.45-13.25,3.75-19.3,6.92c6.47,6.19,9.7,13.83,9.7,22.92c0,8.81-4.13,17.65-12.39,26.53
				c-7.64,8.19-17.14,14.59-28.49,19.2c5.51,4.89,8.26,11.8,8.26,20.75c0,7.64-2.86,15.04-8.57,22.19
				c-8.53,10.74-20.27,17.93-35.2,21.57c-4.82,1.17-9.29,1.75-13.42,1.75s-7.3-0.36-9.5-1.08c-2.2-0.72-3.96-1.63-5.26-2.74
				c-2.41-2-3.61-4.35-3.61-7.07c0-2.72,0.72-5.47,2.17-8.26c1.44-2.79,3.42-5.56,5.94-8.31c2.51-2.75,5.49-5.4,8.93-7.95
				c3.44-2.54,7.12-4.78,11.05-6.71c8.74-4.34,17.2-6.5,25.39-6.5c1.45,0,2.17,0.45,2.17,1.34c0,0.9-1.43,1.34-4.28,1.34
				c-2.86,0-6.19,0.52-10.01,1.55c-3.82,1.03-7.55,2.44-11.2,4.23c-3.65,1.79-7.09,3.85-10.32,6.19c-3.24,2.34-6.06,4.78-8.46,7.33
				c-5.3,5.51-7.95,10.6-7.95,15.28c0,5.64,4.71,8.46,14.14,8.46c6.61,0,13.56-2.48,20.85-7.43c11.7-7.85,19.68-18.79,23.95-32.83
				c1.38-4.68,2.06-9,2.06-12.96c0-3.96-0.52-6.76-1.55-8.41c-7.09,2.41-13.06,3.61-17.91,3.61s-8.09-0.52-9.7-1.55
				c-1.62-1.03-2.43-2.03-2.43-2.99c0-0.96,0.46-1.84,1.39-2.63C125.33,86.41,126.58,85.7,128.17,85.08z M149.33,87.25
				c-2.13-1.24-4.63-1.86-7.48-1.86c-2.86,0-4.99,0.1-6.4,0.31c-1.41,0.21-2.67,0.48-3.77,0.83c-2.27,0.62-3.41,1.31-3.41,2.06
				c0,1.65,2,2.48,5.99,2.48C138.25,91.07,143.27,89.79,149.33,87.25z"/>
			<path class="st1" d="M337.82,10.45c6.4,0,9.6,2.55,9.6,7.64c0,7.57-5.85,16.07-17.55,25.5c-11.15,8.88-24.84,16.59-41.08,23.12
				c-17.07,6.75-32.79,10.46-47.18,11.15c-21.26,23.47-31.9,41.88-31.9,55.23c0,10.6,5.02,16.93,15.07,18.99
				c0-18.58,6.4-35.41,19.2-50.48c7.91-9.29,16.89-15.76,26.94-19.41c4.96-1.86,10.17-2.79,15.64-2.79c5.47,0,9.72,1.33,12.75,3.97
				c3.03,2.65,4.54,6.04,4.54,10.17c0,4.13-0.88,8.48-2.63,13.06c-1.76,4.58-4.22,9.14-7.38,13.68c-3.17,4.54-7,8.93-11.51,13.16
				c-4.51,4.23-9.52,7.97-15.02,11.2c-12.04,7.09-24.6,10.63-37.68,10.63h-0.93c-0.28,0-0.59-0.04-0.93-0.1
				c0.41,11.97,2.44,20.34,6.09,25.08c0.28,0.34,0.41,0.62,0.41,0.83v0.52c0,0.34-0.31,0.52-0.93,0.52c-2.62,0-5.06-5.44-7.33-16.31
				c-0.69-3.3-1.1-6.92-1.24-10.84c-10.12-1.38-16.89-6.57-20.34-15.59c-1.1-2.96-1.65-6.36-1.65-10.22
				c0-16.1,7.33-33.58,21.99-52.44c-11.56-2.61-18.93-8.57-22.09-17.86c-0.96-2.89-1.45-5.99-1.45-9.29s0.89-6.76,2.68-10.37
				c1.79-3.61,4.28-7.12,7.48-10.53c3.2-3.41,7.02-6.62,11.46-9.65c4.44-3.03,9.31-5.68,14.61-7.95c11.56-4.96,23.33-7.43,35.3-7.43
				c5.57,0,8.36,0.59,8.36,1.75c0,0.55-0.45,0.83-1.34,0.83l-7.54-0.41c-14.52,0-29.04,4.89-43.56,14.66
				c-9.36,6.26-16,13.32-19.92,21.16c-2.06,4.06-3.1,7.69-3.1,10.89s0.46,5.85,1.39,7.95c0.93,2.1,2.25,4.04,3.97,5.83
				c3.72,3.85,8.91,6.54,15.59,8.05c14.45-17.89,31.96-32.89,52.54-45.01C300.66,16.74,320.2,10.45,337.82,10.45z M227.78,152.49
				c0.48,0.07,0.96,0.1,1.45,0.1h1.55c8.74,0,18.34-3.92,28.8-11.77c9.29-7.02,17.45-15.62,24.46-25.81
				c6.88-10.05,10.32-18.31,10.32-24.77c0-2.89-0.76-4.95-2.27-6.19s-4.08-1.86-7.69-1.86c-3.61,0-7.59,0.83-11.92,2.48
				c-4.34,1.65-8.62,3.99-12.85,7.02c-4.23,3.03-8.28,6.68-12.13,10.94c-3.86,4.27-7.26,9.02-10.22,14.25
				c-6.33,11.29-9.5,23.12-9.5,35.51V152.49z M344.94,18.4c0-3.65-2.69-5.47-8.05-5.47c-9.91,0-24.12,6.37-42.63,19.1
				c-18.03,12.25-34.72,26.6-50.06,43.05c19.06-2.06,40.6-9.87,64.62-23.43c14.25-8.05,24.67-15.86,31.28-23.43
				C343.32,24.49,344.94,21.22,344.94,18.4z"/>
		</g>
	</g>
</g>
<g id="Layer_2" class="st2">
</g>
</svg>
